<svg width="140" height="20" fill="none" xmlns="http://www.w3.org/2000/svg"><path d="M0 19.107V.377h1.05l13.078 12.728V.377h.996v18.73H0zM28.11 0c1.4 0 2.691.35 3.875 1.05a7.483 7.483 0 0 1 2.799 2.798 7.48 7.48 0 0 1 1.05 3.875v4.09c0 1.4-.35 2.692-1.05 3.876a7.686 7.686 0 0 1-2.799 2.826 7.632 7.632 0 0 1-3.875 1.022c-1.4 0-2.691-.34-3.875-1.022a7.9 7.9 0 0 1-2.826-2.826 7.632 7.632 0 0 1-1.022-3.875v-4.09c0-1.4.34-2.692 1.022-3.876a7.687 7.687 0 0 1 2.826-2.798A7.48 7.48 0 0 1 28.11 0zm-6.728 11.814c0 1.22.296 2.35.888 3.39a6.96 6.96 0 0 0 2.45 2.45c1.04.591 2.17.887 3.39.887 1.22 0 2.341-.296 3.364-.888a6.68 6.68 0 0 0 2.449-2.448c.61-1.041.915-2.171.915-3.391v-4.09c0-1.22-.305-2.342-.915-3.364a6.423 6.423 0 0 0-2.45-2.45A6.445 6.445 0 0 0 28.11.997c-1.22 0-2.35.305-3.39.915a6.68 6.68 0 0 0-2.45 2.449 6.594 6.594 0 0 0-.888 3.363v4.09zM52.991 1.023a5.776 5.776 0 0 1 2.53 2.233 5.99 5.99 0 0 1 .941 3.283c0 1.4-.43 2.655-1.292 3.768a5.977 5.977 0 0 1-3.256 2.18l4.763 6.647h-1.184l-4.601-6.46-.861.028h-6.755v6.432h-.996V.404h7.131c.79 0 1.463.053 2.019.161.574.09 1.094.242 1.56.458zM50.3 11.706c.933 0 1.794-.233 2.583-.7a5.265 5.265 0 0 0 1.884-1.883c.466-.79.7-1.65.7-2.584a5.02 5.02 0 0 0-.835-2.825c-.538-.844-1.291-1.471-2.26-1.884-.7-.287-1.687-.43-2.96-.43h-6.136v10.306H50.3zm12.878 7.428h-.995V.404h1.076l6.54 11.544L76.31.404h.996v18.73h-.995V2.394L70.256 13.08h-.942L63.178 2.26v16.873zM90.05.404h1.05l7.696 18.73H97.72l-2.53-6.19h-9.23l-2.557 6.19h-1.05L90.05.404zm-3.686 11.571h8.422l-4.225-10.28-4.198 10.28zm17.695 7.159V.404h1.05l13.078 12.701V.404h.996v18.73h-.996v-4.63L105.055 1.696v17.439h-.996zm20.817 0V.404h1.05l13.078 12.701V.404H140v18.73h-.996v-4.63L125.872 1.696v17.439h-.996z" fill="#222"/></svg>